<svg width="155" height="64" viewBox="0 0 155 64" fill="none" xmlns="http://www.w3.org/2000/svg">
<g clip-path="url(#clip0)">
<path fill-rule="evenodd" clip-rule="evenodd" d="M39.7349 29.087H48.4189C49.6898 29.087 50.8335 29.2584 51.8078 29.6439C52.7821 30.0295 53.587 30.5007 54.2224 31.1433C54.7308 31.6573 55.112 32.2142 55.3662 32.8996C55.6627 33.585 55.7898 34.2704 55.7898 35.0415V35.0844C55.7898 35.9411 55.6204 36.755 55.3238 37.4405C55.0273 38.1259 54.6037 38.7256 54.053 39.2396C53.5023 39.7537 52.8669 40.1392 52.1467 40.4391C51.4266 40.739 50.6217 40.9532 49.7321 41.0817L56.5523 50.0348H54.646L48.0377 41.3815H47.9953H41.2599V50.0348H39.7349V29.087ZM48.2495 39.9251C49.0967 39.9251 49.9016 39.7965 50.6641 39.5824C51.3842 39.3682 52.0196 39.0255 52.5703 38.6399C53.121 38.2115 53.5023 37.7403 53.8412 37.1406C54.1377 36.5409 54.3071 35.8554 54.3071 35.1272V35.0844C54.3071 33.6707 53.7988 32.5569 52.7398 31.743C51.7231 30.9291 50.2405 30.5007 48.3342 30.5007H41.2599V39.9679H48.2495V39.9251Z" fill="white"/>
<path fill-rule="evenodd" clip-rule="evenodd" d="M68.7523 50.3775C67.2696 50.3775 65.9141 50.0777 64.6432 49.5208C63.3724 48.9639 62.271 48.1928 61.3814 47.2504C60.4495 46.2651 59.7293 45.1513 59.221 43.8233C58.7127 42.4953 58.4585 41.0817 58.4585 39.6252V39.5823C58.4585 38.1259 58.7127 36.7122 59.2634 35.3842C59.7717 34.0562 60.4918 32.8996 61.4238 31.9143C62.3557 30.9291 63.4148 30.158 64.6856 29.6011C65.9564 29.0442 67.312 28.7443 68.837 28.7443C69.769 28.7443 70.6162 28.83 71.3363 29.0014C72.0988 29.1727 72.7766 29.3869 73.412 29.6868C74.0475 29.9866 74.6405 30.3293 75.2336 30.7577C75.7843 31.1861 76.335 31.6145 76.8857 32.1285L75.7843 33.2852C75.3183 32.8568 74.8523 32.4284 74.344 32.0429C73.8356 31.6573 73.3273 31.3574 72.7766 31.0576C72.2259 30.8006 71.5905 30.5864 70.9551 30.415C70.2773 30.2437 69.5995 30.158 68.7946 30.158C67.5662 30.158 66.3801 30.415 65.321 30.8862C64.262 31.3574 63.33 32.0429 62.5675 32.8568C61.805 33.7135 61.1696 34.6988 60.746 35.8126C60.3224 36.9692 60.0682 38.1687 60.0682 39.4967V39.5395C60.0682 40.8675 60.28 42.067 60.746 43.2236C61.212 44.3802 61.805 45.3655 62.6099 46.2222C63.3724 47.079 64.3044 47.7216 65.3634 48.2356C66.4224 48.7069 67.5662 48.9639 68.837 48.9639C70.3197 48.9639 71.6329 48.664 72.7342 48.1071C73.8356 47.5502 74.8947 46.7363 75.9537 45.6653L76.9704 46.6935C76.4197 47.2504 75.869 47.7216 75.2759 48.1928C74.6829 48.6212 74.0898 49.0067 73.412 49.3494C72.7343 49.6493 72.0565 49.9063 71.2516 50.0777C70.4891 50.2919 69.6419 50.3775 68.7523 50.3775Z" fill="white"/>
<path fill-rule="evenodd" clip-rule="evenodd" d="M98.8713 46.6506L95.9907 43.6948C95.1859 44.4659 94.381 45.0656 93.5338 45.494C92.7289 45.9224 91.7122 46.1366 90.5261 46.1366C89.6365 46.1366 88.8317 45.9652 88.0692 45.6225C87.349 45.2798 86.7136 44.8086 86.1629 44.2088C85.6546 43.6091 85.231 42.9237 84.9344 42.1098C84.6379 41.2959 84.5108 40.4819 84.5108 39.5823V39.5395C84.5108 38.6399 84.6379 37.7831 84.9344 37.0121C85.231 36.241 85.6546 35.5127 86.1629 34.913C86.7136 34.3133 87.349 33.842 88.0692 33.4993C88.7893 33.1566 89.5942 32.9853 90.4838 32.9853C91.5428 32.9853 92.4747 33.1995 93.322 33.6279C94.1692 34.0562 94.9741 34.6131 95.7789 35.3414L98.6595 31.9572C98.1935 31.4859 97.6852 31.0576 97.1345 30.6292C96.5838 30.2436 95.9907 29.9009 95.3129 29.6011C94.6775 29.3012 93.9574 29.087 93.1525 28.9585C92.3477 28.7872 91.4581 28.7015 90.5261 28.7015C88.9164 28.7015 87.4761 29.0013 86.1629 29.5582C84.8497 30.1151 83.706 30.8862 82.774 31.8715C81.8421 32.8568 81.0796 34.0134 80.5712 35.2985C80.0205 36.5837 79.7664 37.9973 79.7664 39.4967V39.5395C79.7664 41.0388 80.0205 42.4525 80.5712 43.7376C81.1219 45.0656 81.8421 46.1794 82.774 47.1647C83.706 48.15 84.8497 48.8782 86.1629 49.4351C87.4761 49.992 88.874 50.2919 90.399 50.2919C91.4157 50.2919 92.3053 50.2062 93.1102 50.0348C93.915 49.8635 94.6775 49.6064 95.3553 49.3066C96.0331 48.9639 96.6685 48.5783 97.2192 48.1071C97.7699 47.7216 98.363 47.2075 98.8713 46.6506Z" fill="white"/>
<path fill-rule="evenodd" clip-rule="evenodd" d="M112.469 40.739H105.691C105.861 39.7109 106.242 38.8541 106.835 38.2544C107.428 37.6546 108.191 37.3119 109.123 37.3119C110.055 37.3119 110.817 37.6118 111.41 38.2544C111.961 38.8969 112.3 39.7109 112.469 40.739ZM116.832 42.4525V42.4097C116.832 41.253 116.663 40.1821 116.366 39.154C116.07 38.1259 115.604 37.1834 114.926 36.3695C114.291 35.5556 113.486 34.913 112.512 34.4418C111.537 33.9706 110.393 33.7135 109.08 33.7135C107.936 33.7135 106.877 33.9277 105.903 34.3561C104.929 34.7845 104.124 35.3842 103.446 36.1553C102.768 36.9264 102.218 37.7831 101.836 38.8113C101.455 39.8394 101.243 40.9103 101.243 42.0241V42.0669C101.243 43.3093 101.455 44.423 101.879 45.4512C102.302 46.4793 102.853 47.336 103.616 48.0643C104.336 48.7925 105.225 49.3494 106.242 49.7778C107.259 50.1633 108.36 50.3775 109.546 50.3775C110.987 50.3775 112.257 50.1205 113.316 49.5636C114.375 49.0496 115.307 48.3213 116.028 47.3789L113.443 45.0656C112.808 45.6653 112.215 46.0509 111.622 46.3079C111.029 46.5649 110.351 46.6935 109.631 46.6935C108.614 46.6935 107.767 46.4364 107.089 45.8795C106.411 45.3655 105.946 44.5516 105.734 43.5234H116.748C116.748 43.3093 116.79 43.0951 116.79 42.9666C116.832 42.838 116.832 42.6667 116.832 42.4525Z" fill="white"/>
<path d="M124.881 28.1874H120.391V50.0348H124.881V28.1874Z" fill="white"/>
<path fill-rule="evenodd" clip-rule="evenodd" d="M138.013 49.3494V45.7082C137.335 46.0937 136.573 46.2651 135.81 46.2651C134.836 46.2651 134.37 45.751 134.37 44.7229V37.8688H138.098V33.9706H134.37V29.8581H129.88V33.9706H127.931V37.8688H129.837V45.4512C129.837 46.3936 129.964 47.1647 130.176 47.7644C130.388 48.3641 130.727 48.8782 131.108 49.2637C131.532 49.6493 131.998 49.9063 132.549 50.0348C133.099 50.1633 133.735 50.249 134.412 50.249C135.175 50.249 135.81 50.1633 136.403 49.992C136.996 49.8635 137.547 49.6493 138.013 49.3494Z" fill="white"/>
<path fill-rule="evenodd" clip-rule="evenodd" d="M150.764 44.3802C150.764 45.2369 150.425 45.8795 149.79 46.3936C149.154 46.9076 148.307 47.1646 147.248 47.1646C146.528 47.1646 145.935 46.9933 145.469 46.6506C145.003 46.3079 144.791 45.8367 144.791 45.1941V45.1513C144.791 44.423 145.087 43.8661 145.638 43.5234C146.189 43.1379 146.951 42.9665 147.926 42.9665C148.476 42.9665 148.985 43.0094 149.493 43.1379C149.959 43.2664 150.425 43.3949 150.806 43.5662V44.3802H150.764ZM155 50.0348V40.6961C155 38.5114 154.449 36.8407 153.306 35.5984C152.162 34.3989 150.383 33.7563 147.926 33.7563C146.57 33.7563 145.426 33.8849 144.494 34.099C143.562 34.3561 142.631 34.6559 141.783 35.0415L142.927 38.5114C143.647 38.2115 144.367 37.9973 145.003 37.8688C145.681 37.7403 146.443 37.6546 147.29 37.6546C148.434 37.6546 149.281 37.9116 149.832 38.3829C150.383 38.8969 150.679 39.6252 150.679 40.5676V40.8246C150.086 40.6104 149.535 40.4819 148.9 40.3534C148.307 40.2249 147.587 40.182 146.782 40.182C145.85 40.182 144.96 40.2677 144.198 40.4819C143.435 40.6961 142.758 40.996 142.207 41.4243C141.656 41.8527 141.19 42.3668 140.894 43.0094C140.597 43.6519 140.428 44.423 140.428 45.2798V45.3226C140.428 46.1365 140.555 46.8219 140.851 47.4217C141.148 48.0214 141.529 48.5355 142.037 48.9638C142.546 49.3922 143.096 49.6921 143.774 49.9063C144.452 50.1205 145.13 50.2061 145.892 50.2061C146.994 50.2061 147.926 50.0348 148.688 49.6493C149.451 49.2637 150.128 48.7925 150.679 48.1499V49.8634H155V50.0348Z" fill="white"/>
<path d="M18.3001 13.1941H16.8598C16.8598 10.6238 16.7751 7.41098 16.2667 7.19679C15.6737 6.93976 15.0383 7.28246 15.4619 8.18206C15.9702 9.16734 15.6737 9.85275 14.6994 9.93842C13.8945 10.0241 12.8355 9.85275 12.2848 7.96787C11.6494 5.7403 13.132 5.1834 15.589 2.87015C17.707 0.899598 18.3001 0 18.3001 0C18.3001 0 18.8931 0.899599 21.0536 2.91299C23.5105 5.1834 24.9932 5.7403 24.3578 8.01071C23.8071 9.89558 22.748 10.0241 21.9432 9.98126C20.9688 9.89558 20.7147 9.21018 21.1807 8.2249C21.6466 7.3253 21.0112 6.9826 20.3758 7.23963C19.8675 7.45382 19.7827 10.6667 19.7827 13.2369H18.3001V13.1941Z" fill="#D50032"/>
<path d="M18.3 64L13.5979 36.6694C15.3347 36.1981 16.6056 34.656 16.6903 32.8139H19.9097C19.9945 34.656 21.2653 36.241 23.0021 36.6694L18.3 64Z" fill="#D50032"/>
<path d="M1.99098 21.2048C1.65209 20.905 1.44028 20.5194 1.18612 20.2624C0.847226 19.9197 0.465974 19.6627 0 19.6627C0.465974 19.6627 0.847226 19.4056 1.14376 19.0629C1.39792 18.8059 1.60973 18.3775 1.94862 18.1205C2.16043 17.9491 2.45696 17.8206 2.75348 17.8206C3.26182 17.8206 3.68543 18.1205 3.89724 18.5917C4.15141 18.5917 4.91391 18.5917 5.37989 18.5489C5.93058 18.506 6.31183 18.506 5.67641 18.0348L5.37989 17.8206C4.95627 17.5636 4.61738 17.1781 4.44794 16.7068C4.40558 16.664 4.40558 16.5783 4.36321 16.4926C4.32085 16.407 4.32085 16.3213 4.27849 16.1928C4.23613 16.0643 4.23613 15.8929 4.23613 15.7216C4.23613 14.4364 5.21044 13.4083 6.48128 13.3226C6.65072 13.3226 6.82017 13.3226 6.94725 13.3226C6.98961 13.3226 7.07434 13.3655 7.1167 13.3655C7.37087 13.4083 7.58267 13.5368 7.83684 13.6653L7.92156 13.7082C9.10768 14.4793 9.65838 15.9358 9.65838 15.9358C9.65838 15.9358 9.36185 15.7644 8.13337 15.5502C7.20142 15.4217 6.65072 15.8501 6.77781 16.7068C6.98961 18.0348 8.76879 18.3775 8.76879 18.3775H11.8612V20.905H8.76879C8.76879 20.905 6.98961 21.2477 6.77781 22.5756C6.65072 23.4752 7.20142 23.9036 8.13337 23.6894C9.36185 23.4324 9.65838 23.3039 9.65838 23.3039C9.65838 23.3039 9.10768 24.8032 7.92156 25.5315L7.83684 25.5743C7.58267 25.7457 7.3285 25.8313 7.1167 25.8742C7.07434 25.8742 6.98961 25.917 6.94725 25.917C6.77781 25.9598 6.60836 25.9598 6.48128 25.917C5.21044 25.8742 4.23613 24.8032 4.23613 23.5609C4.23613 23.3896 4.23613 23.2611 4.27849 23.0897C4.27849 23.004 4.32085 22.8755 4.36321 22.7898C4.40558 22.7042 4.40558 22.6613 4.44794 22.5756C4.65974 22.1044 4.95627 21.7189 5.37989 21.4619L5.67641 21.2477C6.31183 20.7764 5.88822 20.7764 5.37989 20.7336C4.95627 20.6908 4.15141 20.6908 3.89724 20.6908C3.72779 21.162 3.26182 21.4619 2.75348 21.4619C2.45696 21.5047 2.20279 21.3762 1.99098 21.2048Z" fill="#D50032"/>
<path d="M34.4821 21.2048C34.821 20.905 35.0328 20.5194 35.287 20.2624C35.5835 19.9197 35.9648 19.6627 36.4307 19.6627C35.9648 19.6627 35.5835 19.4056 35.287 19.0629C35.0328 18.8059 34.821 18.3775 34.4821 18.1205C34.2703 17.9491 33.9738 17.8206 33.6773 17.8206C33.1689 17.8206 32.7453 18.1205 32.5335 18.5917C32.2793 18.5917 31.4745 18.5917 31.0509 18.5489C30.5002 18.506 30.1189 18.506 30.7543 18.0348L31.0509 17.8206C31.4745 17.5636 31.8134 17.1781 31.9828 16.7068C32.0252 16.664 32.0252 16.5783 32.0675 16.4926C32.1099 16.407 32.1099 16.3213 32.1523 16.1928C32.1946 16.0214 32.1946 15.8929 32.1946 15.7216C32.1946 14.4364 31.2203 13.4083 29.9495 13.3226C29.78 13.3226 29.6106 13.3226 29.4835 13.3226C29.4411 13.3226 29.3564 13.3655 29.314 13.3655C29.0599 13.4083 28.8481 13.5368 28.5939 13.6653L28.5092 13.7082C27.3231 14.4793 26.7724 15.9358 26.7724 15.9358C26.7724 15.9358 27.0689 15.7644 28.2974 15.5502C29.2293 15.4217 29.78 15.8501 29.6529 16.7068C29.4411 18.0348 27.662 18.3775 27.662 18.3775H24.5696V20.905H27.662C27.662 20.905 29.4411 21.2477 29.6529 22.5756C29.78 23.4752 29.2293 23.9036 28.2974 23.6894C27.0689 23.4324 26.7724 23.3039 26.7724 23.3039C26.7724 23.3039 27.3231 24.8032 28.5092 25.5315L28.5939 25.5743C28.8481 25.7457 29.1022 25.8313 29.314 25.8742C29.3564 25.8742 29.4411 25.917 29.4835 25.917C29.6529 25.9598 29.8224 25.9598 29.9495 25.917C31.1779 25.8313 32.1946 24.8032 32.1946 23.5181C32.1946 23.3467 32.1946 23.2182 32.1523 23.0469C32.1523 22.9612 32.1099 22.8327 32.0675 22.747C32.0252 22.6613 32.0252 22.6185 31.9828 22.5328C31.771 22.0616 31.4745 21.676 31.0509 21.419L30.7543 21.2048C30.1189 20.7336 30.5425 20.7336 31.0509 20.6908C31.4745 20.6479 32.2793 20.6479 32.5335 20.6479C32.703 21.1192 33.1689 21.419 33.6773 21.419C33.9738 21.5047 34.228 21.3762 34.4821 21.2048Z" fill="#D50032"/>
<path d="M22.7904 31.2289C21.5619 32.7283 20.0369 33.6707 18.4272 34.5275L18.2154 34.656L18.0036 34.5703C16.3938 33.7135 14.8265 32.7283 13.598 31.2718C10.6751 27.7162 9.19241 22.49 9.23477 17.8635H27.1536C27.2807 22.4043 25.6709 27.759 22.7904 31.2289Z" fill="white"/>
<path d="M26.7299 16.7497C27.1111 21.4618 25.5014 27.2878 22.4938 30.9719C21.3076 32.3855 19.825 33.328 18.2576 34.1847C16.6903 33.328 15.1652 32.3855 13.9791 30.9719C10.9291 27.245 9.44647 21.5475 9.743 16.7497H26.7299Z" fill="#6CACE4"/>
<path d="M22.9174 15.4217C20.4605 14.4364 20.1216 14.2222 18.2577 14.2222C16.0125 14.2222 15.8007 14.4364 13.5979 15.4217C13.3861 15.2932 13.0896 15.0361 12.9202 14.822C12.9202 14.6506 12.9625 14.4364 13.0896 14.2222C13.4285 13.5368 14.3181 12.9371 14.9959 12.8942C15.8007 12.2517 17.1139 11.909 18.0459 12.0803C18.1306 12.0803 18.2153 12.1232 18.2577 12.1232C18.3424 12.1232 18.3848 12.0803 18.4695 12.0803C19.4014 11.909 20.7146 12.2517 21.5195 12.8942C22.2397 12.9371 23.0869 13.5368 23.4258 14.2222C23.5529 14.4364 23.5952 14.6506 23.5952 14.822C23.4258 15.0361 23.1292 15.2932 22.9174 15.4217Z" fill="#C09A4E"/>
<path d="M18.2577 10.4525C20.6299 9.38152 21.816 10.2383 22.0278 11.4806C24.9507 10.7523 24.6966 15.1647 22.9174 15.8501L22.6632 16.3641C21.1806 16.0643 20.1216 15.9357 18.2577 15.9357C16.9021 15.9357 14.9111 16.0214 13.725 16.1928L13.5979 15.8501C11.7764 15.2075 11.5222 10.7523 14.4451 11.4806C14.6993 10.2383 15.8431 9.38152 18.2577 10.4525ZM13.7674 14.7363C14.9535 14.7791 14.8688 13.9652 14.7417 13.3226C14.6569 12.8514 14.4028 12.68 14.4028 11.9518C13.6403 11.3092 12.793 12.5087 12.7083 13.3226C12.6236 14.7363 13.6826 14.7363 13.7674 14.7363ZM17.8764 10.7095C13.9368 8.95314 14.7417 14.7363 17.5375 13.3655C17.707 13.2798 17.707 13.1084 17.6646 12.9371C17.5375 12.2945 17.6222 11.3949 17.8764 10.7095ZM18.5965 10.7095C18.8507 11.3521 18.9354 12.2517 18.8084 12.9371C18.766 13.1084 18.766 13.2798 18.9354 13.3655C21.7313 14.7791 22.5361 8.95314 18.5965 10.7095ZM22.7056 14.7363C22.7903 14.7363 23.8917 14.7363 23.7646 13.2798C23.6799 12.4659 22.8327 11.3092 22.0702 11.909C22.0702 12.6372 21.816 12.8086 21.7313 13.2798C21.6042 13.9652 21.5195 14.7791 22.7056 14.7363Z" fill="#C09A4E"/>
<path d="M23.0022 16.0214L22.3245 17.1352L22.3668 17.1781V17.2209C22.3668 17.2637 22.3668 17.2637 22.3245 17.3066C22.3245 17.3494 22.2821 17.3494 22.2397 17.3494H22.1974C22.155 17.3494 22.1126 17.3494 22.1126 17.3066C21.9008 17.1781 21.6467 17.0924 21.4349 17.0067C21.096 16.8782 20.7994 16.7925 20.5453 16.7068C20.2064 16.6212 19.9099 16.5355 19.6133 16.4926C19.2744 16.4498 18.9779 16.407 18.7237 16.407C18.5543 16.407 18.3849 16.407 18.2578 16.407C18.1307 16.407 17.9612 16.407 17.7918 16.407C17.5376 16.407 17.1987 16.4498 16.9022 16.4926C16.6057 16.5355 16.3091 16.5783 15.9703 16.7068C15.6737 16.7925 15.3772 16.8782 15.0807 17.0067C14.8689 17.0924 14.6147 17.1781 14.4029 17.3066C14.3605 17.3494 14.3182 17.3494 14.3182 17.3494C14.2758 17.3494 14.2758 17.3494 14.2334 17.3066C14.1911 17.2637 14.1911 17.1781 14.2334 17.1352L13.5557 16.0214C16.055 14.2651 20.4606 14.2651 23.0022 16.0214Z" fill="#C09A4E"/>
<path d="M17.8764 8.82464V8.7818H18.5965L18.4694 9.21018L18.8083 9.08167V9.80991L18.4694 9.6814L18.5965 10.2383H17.8764L18.0034 9.6814L17.6646 9.80991V9.08167L18.0034 9.21018L17.8764 8.82464Z" fill="#C09A4E"/>
<path d="M19.5708 13.751C19.5285 13.7082 19.4861 13.6225 19.4861 13.5368C19.4861 13.4511 19.5285 13.3655 19.5708 13.3226C19.6132 13.2798 19.6132 13.2798 19.6556 13.2369C19.6979 13.2369 19.6979 13.1941 19.7403 13.1941C19.7826 13.1941 19.7826 13.1941 19.825 13.1941C19.8674 13.1941 19.8674 13.1941 19.9097 13.1941C19.9521 13.1941 19.9521 13.1941 19.9944 13.2369C20.0368 13.2798 20.0792 13.2798 20.0792 13.3226C20.1215 13.3655 20.1639 13.4511 20.1639 13.5368V13.5797V13.6225C20.1639 13.7082 20.1215 13.751 20.0792 13.8367C20.0368 13.8795 20.0368 13.8795 19.9944 13.9224C19.9521 13.9224 19.9521 13.9652 19.9097 13.9652H19.8674C19.9097 14.3936 20.5028 14.7791 20.9688 14.5221C21.0535 14.4793 21.1806 14.3936 21.2653 14.3079C21.2229 14.2651 21.2229 14.2222 21.1806 14.1794H21.1382H21.0958L21.0535 14.1365C21.0111 14.1365 20.9688 14.1794 20.9688 14.1794C20.9688 14.1794 20.9688 14.1794 20.9264 14.1794C20.884 14.1794 20.884 14.2222 20.8417 14.2222C20.7993 14.2222 20.7993 14.2651 20.7569 14.2651C20.7569 14.2651 20.7146 14.2651 20.7146 14.3079C20.7146 14.3079 20.6722 14.3507 20.6299 14.3507C20.6299 14.3507 20.5875 14.3507 20.5875 14.3936C20.5451 14.3936 20.5451 14.3936 20.5451 14.3936C20.4604 14.3936 20.4181 14.3079 20.4604 14.2222C20.5028 14.1794 20.5028 14.1365 20.5451 14.0937L20.5875 14.0509V14.008C20.5875 13.9652 20.5875 13.9652 20.5451 13.9224C20.5028 13.7938 20.5451 13.7082 20.5875 13.6653C20.5875 13.6225 20.6299 13.6225 20.6299 13.5797C20.6722 13.5368 20.6722 13.5368 20.6722 13.494C20.7146 13.4511 20.7569 13.4511 20.7569 13.4083C20.7993 13.4083 20.7993 13.3655 20.7993 13.3655C20.7993 13.2369 20.8417 13.1941 20.8417 13.1513C20.8417 13.1513 20.8417 13.1513 20.884 13.1513C20.9264 13.1513 20.9264 13.1513 20.9688 13.1513C21.0111 13.1513 21.0535 13.2369 21.0535 13.3226V13.3655C21.0535 13.4511 21.0535 13.494 21.0958 13.5797C21.0958 13.6225 21.1382 13.6225 21.1382 13.6653C21.1806 13.7082 21.1806 13.751 21.2229 13.7938C21.2653 13.7082 21.35 13.6653 21.4347 13.6653V13.7082C21.35 13.6225 21.3076 13.5797 21.2653 13.494C21.2229 13.4083 21.2229 13.4083 21.1806 13.2798C21.1806 13.2798 21.1382 13.1941 21.0958 13.1513C21.0958 13.1084 21.0958 13.0656 21.1382 13.0228C21.1806 13.0228 21.2229 12.9799 21.3076 13.0656C21.35 13.1084 21.35 13.1084 21.3924 13.1513C21.4347 13.1941 21.4771 13.1513 21.5194 13.1513C21.5618 13.1513 21.6042 13.1084 21.6465 13.1084C21.7313 13.1084 21.7313 13.1084 21.7313 13.1084C21.7313 13.1084 21.816 13.1084 21.8583 13.1941C21.9007 13.2369 21.9007 13.2798 21.9007 13.3226C21.9007 13.3655 21.9431 13.4083 21.9854 13.4083C22.0701 13.4083 22.0701 13.4083 22.1125 13.4083C22.1972 13.4511 22.282 13.4511 22.282 13.494C22.282 13.5368 22.2396 13.5797 22.1972 13.6225C22.1549 13.6225 22.1549 13.6225 22.0701 13.6225C21.9854 13.6225 21.9431 13.6653 21.8583 13.7082C21.7736 13.751 21.6889 13.7938 21.6042 13.7938H21.5618C21.6465 13.8367 21.6889 13.9224 21.6889 14.008C21.7736 14.008 21.816 13.9652 21.9007 13.9224C21.9854 13.8795 22.0278 13.7938 22.1125 13.751C22.1549 13.751 22.1972 13.7082 22.2396 13.7082C22.3243 13.7082 22.3667 13.7938 22.3243 13.8795C22.282 13.9224 22.282 13.9224 22.2396 13.9652C22.1972 14.008 22.2396 14.0937 22.2396 14.1365C22.282 14.3079 22.1972 14.3936 22.1549 14.4364C22.0701 14.5649 21.9431 14.5649 21.9854 14.6506C22.0278 14.822 21.9431 14.9076 21.9007 14.9076C21.8583 14.9076 21.7313 14.9076 21.7313 14.6934C21.7313 14.6078 21.7313 14.4792 21.6889 14.3936C21.6465 14.3079 21.6042 14.3079 21.6042 14.1794C21.5618 14.2222 21.5194 14.2222 21.4347 14.2222C21.4347 14.7791 21.9007 15.0361 22.3243 14.9505C22.4514 14.9505 22.5361 14.9076 22.6632 14.822C22.6208 14.7791 22.6208 14.7363 22.6208 14.6934C22.6208 14.5649 22.7479 14.4364 22.875 14.4364C23.0021 14.4364 23.1292 14.5649 23.1292 14.6934C23.1292 14.822 23.0021 14.9505 22.875 14.9505C22.8326 14.9505 22.8326 14.9505 22.7903 14.9505C22.7479 15.4217 23.1292 15.8072 23.5952 15.5074C23.5528 15.4645 23.5528 15.4217 23.5528 15.3788C23.4681 15.4217 23.2563 15.4645 23.2139 15.4645C23.1292 15.4645 23.1292 15.4217 23.1292 15.3788C23.1292 15.336 23.1715 15.2932 23.2139 15.2932C23.2563 15.2503 23.2139 15.1647 23.2563 15.079C23.2986 14.9933 23.2986 14.9933 23.3833 14.9933C23.4681 14.9505 23.4681 14.9933 23.4681 14.9505C23.5104 14.9505 23.5104 14.8648 23.5104 14.8648L23.5528 14.822C23.5528 14.822 23.5952 14.822 23.6375 14.822C23.6799 14.8648 23.6799 14.9076 23.6799 14.9505C23.6799 14.9933 23.6799 15.1647 23.6799 15.2075C23.7222 15.2075 23.7222 15.1647 23.7646 15.1647H23.807C23.807 15.1218 23.8493 14.9933 23.8493 14.9076C23.8493 14.822 23.8493 14.822 23.8493 14.7791C23.8917 14.7363 23.934 14.7791 23.9764 14.7791C24.0188 14.822 24.1035 14.9505 24.1459 14.9505C24.2306 14.9505 24.2306 14.9505 24.2729 14.9505C24.3577 14.9933 24.4847 15.1218 24.4847 15.1647C24.4847 15.2503 24.4847 15.2075 24.4424 15.2503C24.4 15.2932 24.2306 15.2503 24.1035 15.2503C24.0611 15.2503 24.0188 15.2932 23.9764 15.2932C23.9764 15.2932 23.934 15.336 23.8493 15.4217C23.7646 15.5074 23.7646 15.5074 23.7646 15.5074C23.7646 15.5074 23.7646 15.5074 23.7222 15.5074C23.5952 15.6359 23.4257 15.7216 23.2139 15.7644H23.1292C23.0445 15.7644 22.9597 15.7216 22.8327 15.6787C22.5361 15.5502 22.6208 15.1218 22.6208 15.0361C22.5361 15.1218 22.4514 15.1218 22.3243 15.1647C22.1125 15.2075 21.9007 15.2075 21.6889 15.1218C21.35 14.9933 21.2653 14.5221 21.2653 14.3507C21.2653 14.3936 21.1382 14.5221 20.9688 14.5649C20.7993 14.6506 20.5451 14.7363 20.3333 14.6506C19.9944 14.5649 19.8674 14.3079 19.6979 14.0937C19.6556 14.1365 19.6556 14.1794 19.6132 14.2222C19.4437 14.3507 19.1896 14.4792 18.9354 14.4792C18.5542 14.4364 18.3 14.0937 18.2576 13.9652C18.1729 14.0509 17.9187 14.4364 17.5798 14.4792C17.3257 14.5221 17.0715 14.3507 16.9021 14.2222C16.8597 14.1794 16.8173 14.1365 16.8173 14.1365C16.6479 14.3507 16.5632 14.6078 16.1819 14.6934C15.9701 14.7791 15.716 14.6934 15.5465 14.6078C15.3771 14.5221 15.25 14.4364 15.25 14.3936C15.25 14.5221 15.1653 14.9933 14.8264 15.1647C14.6146 15.2503 14.3604 15.2503 14.1909 15.2075C14.0639 15.1647 13.9791 15.1218 13.8944 15.079C13.8944 15.1647 13.9368 15.593 13.6826 15.7216C13.5555 15.8072 13.4708 15.8501 13.3861 15.8501H13.3014C13.0896 15.8501 12.9201 15.7216 12.793 15.593C12.793 15.593 12.793 15.593 12.7507 15.593C12.7507 15.593 12.7083 15.5502 12.6659 15.5074C12.5812 15.4645 12.5389 15.4217 12.5389 15.4217C12.4965 15.3788 12.4541 15.3788 12.4118 15.3788C12.2847 15.336 12.1152 15.3788 12.0729 15.3788C12.0305 15.336 12.0305 15.3788 12.0305 15.2932C12.0305 15.2075 12.1576 15.079 12.2423 15.079C12.327 15.0361 12.2847 15.079 12.3694 15.079C12.4541 15.079 12.4965 14.9505 12.5389 14.9076C12.5812 14.8648 12.6236 14.8648 12.6659 14.9076C12.7083 14.9505 12.6659 14.9076 12.6659 15.0361C12.6659 15.1218 12.6659 15.2503 12.7083 15.2932H12.7507C12.793 15.2932 12.8354 15.2932 12.8354 15.336C12.8354 15.2503 12.8354 15.1218 12.8354 15.079C12.8354 15.0361 12.8354 14.9933 12.8777 14.9505C12.9201 14.9076 12.9625 14.9505 12.9625 14.9505C12.9625 14.9505 13.0048 14.9505 13.0048 14.9933C13.0048 15.0361 13.0472 15.079 13.0472 15.079C13.0895 15.1218 13.0896 15.079 13.1319 15.1218C13.2166 15.1647 13.2166 15.1647 13.259 15.2075C13.3014 15.2932 13.259 15.3788 13.3014 15.4217C13.3437 15.4645 13.3861 15.5074 13.3861 15.5074C13.3861 15.5502 13.3861 15.593 13.3014 15.593C13.259 15.593 13.0472 15.5074 12.9625 15.5074C12.9625 15.5502 12.9625 15.593 12.9201 15.6359C13.3861 15.9357 13.7673 15.593 13.725 15.079C13.725 15.079 13.6826 15.079 13.6402 15.079C13.5132 15.079 13.3861 14.9505 13.3861 14.822C13.3861 14.6934 13.5132 14.5649 13.6402 14.5649C13.7673 14.5649 13.8944 14.6934 13.8944 14.822C13.8944 14.8648 13.8944 14.9505 13.8521 14.9505C13.9368 14.9933 14.0639 15.0361 14.1909 15.079C14.6146 15.1647 15.0805 14.9076 15.0805 14.3507C14.9958 14.3507 14.9534 14.3079 14.9111 14.2651C14.9111 14.3936 14.8687 14.3936 14.8264 14.4792C14.784 14.5649 14.784 14.6934 14.784 14.7791C14.784 14.9933 14.6569 14.9933 14.6146 14.9933C14.5722 14.9933 14.4875 14.9076 14.5298 14.7363C14.5298 14.6506 14.4451 14.6506 14.3604 14.5221C14.318 14.4793 14.2757 14.3936 14.2757 14.2222C14.2757 14.1794 14.318 14.1365 14.2757 14.0509C14.2333 14.008 14.2333 14.008 14.1909 13.9652C14.1486 13.8795 14.1909 13.7938 14.2757 13.7938C14.318 13.7938 14.4028 13.7938 14.4028 13.8367C14.4875 13.8795 14.5298 13.9224 14.6146 14.008C14.6993 14.0509 14.7416 14.0937 14.784 14.0937C14.784 14.008 14.8264 13.9224 14.9111 13.8795H14.8687C14.7416 13.9224 14.6569 13.8367 14.5722 13.7938C14.4875 13.751 14.4875 13.7082 14.4028 13.7082C14.318 13.7082 14.318 13.7082 14.2757 13.7082C14.2333 13.6653 14.1909 13.6225 14.2333 13.5797C14.2333 13.5368 14.318 13.494 14.4028 13.494C14.4875 13.494 14.4875 13.494 14.5298 13.494C14.6146 13.494 14.6146 13.4083 14.6146 13.4083C14.6146 13.3655 14.6146 13.3226 14.6569 13.2798C14.6993 13.2369 14.784 13.1941 14.784 13.1941C14.784 13.1941 14.784 13.1941 14.8687 13.1941C14.9111 13.1941 14.9534 13.1941 14.9958 13.2369C15.0382 13.2369 15.0805 13.2798 15.1229 13.2369C15.1653 13.1941 15.1653 13.1941 15.2076 13.1513C15.2923 13.1084 15.3347 13.1084 15.3771 13.1084C15.4194 13.1084 15.4194 13.1941 15.4194 13.2369C15.4194 13.2798 15.3347 13.3226 15.3347 13.3655C15.2923 13.4511 15.2923 13.494 15.25 13.5797C15.2076 13.6653 15.1653 13.7082 15.0805 13.7938L15.0382 13.8367C15.1229 13.8367 15.2076 13.8795 15.25 13.9652C15.2923 13.8795 15.3347 13.7938 15.3771 13.751C15.4194 13.6653 15.4194 13.5797 15.4194 13.494C15.4194 13.2798 15.5465 13.2798 15.5889 13.3226C15.6312 13.3655 15.6736 13.3655 15.6736 13.5368C15.6736 13.6225 15.8007 13.5797 15.8854 13.7082C15.9278 13.751 16.0125 13.8367 15.9701 14.0509C15.9701 14.0937 15.9278 14.1794 15.9701 14.2222C16.0125 14.2651 16.0125 14.3079 16.0548 14.3507C16.0972 14.4364 16.0125 14.5221 15.9278 14.5221C15.8854 14.5221 15.843 14.4793 15.8007 14.4364C15.6736 14.3507 15.6736 14.3507 15.5889 14.3079C15.5041 14.2651 15.5041 14.2651 15.4194 14.2222C15.3771 14.2222 15.3771 14.2222 15.3347 14.1794C15.3347 14.2222 15.2923 14.2651 15.25 14.3079C15.3347 14.4364 15.4194 14.4793 15.5465 14.5221C16.0548 14.7791 16.6055 14.3936 16.6479 13.9652C16.4785 13.9224 16.3514 13.7938 16.3514 13.6225C16.3514 13.4511 16.4785 13.2798 16.6903 13.2798C16.8597 13.2798 17.0292 13.4511 17.0292 13.6225C17.0292 13.751 16.9444 13.8795 16.8173 13.9224C16.8597 13.9652 16.8597 14.008 16.9021 14.0509C17.0292 14.2651 17.2833 14.3936 17.6646 14.3079C18.0458 14.2651 18.1729 13.9224 18.2153 13.7938C18.0882 13.751 18.0035 13.7082 17.9611 13.5797C17.9611 13.6225 17.9187 13.7082 17.8764 13.751C17.834 13.7938 17.7493 13.9224 17.7493 13.9652C17.7069 14.0509 17.6646 14.0937 17.6646 14.1365C17.6222 14.1794 17.5798 14.1794 17.5798 14.1794C17.5375 14.1794 17.4951 14.0937 17.4951 14.0509C17.4951 13.9652 17.4951 13.8367 17.4528 13.8367C17.4104 13.751 17.2833 13.7082 17.2833 13.5368C17.2833 13.3226 17.4104 13.3226 17.4104 13.2369C17.4104 13.1941 17.368 13.0228 17.368 12.9799C17.368 12.8942 17.4104 12.8514 17.4528 12.8514C17.5375 12.8514 17.6222 12.8942 17.6222 12.9371C17.6646 13.0228 17.7069 13.0228 17.7493 13.0656C17.834 13.1513 17.8764 13.1513 17.9187 13.2369C17.9611 13.2798 17.9611 13.2798 17.9611 13.3226C18.0035 13.1941 18.0882 13.1084 18.2153 13.0656H18.1729C18.0458 13.0228 17.9611 12.9799 17.9187 12.8942C17.834 12.8086 17.834 12.7657 17.7493 12.7657C17.6646 12.7229 17.6646 12.7229 17.6222 12.6801C17.5798 12.6372 17.5798 12.5944 17.6222 12.5515C17.6646 12.5087 17.7069 12.4659 17.834 12.5087C17.9187 12.5087 17.9187 12.5087 17.9611 12.5515C18.0458 12.5944 18.0458 12.5515 18.0882 12.5515C18.1305 12.5087 18.1729 12.423 18.2153 12.423C18.3 12.3802 18.3424 12.3802 18.3424 12.3802C18.3424 12.3802 18.3847 12.3802 18.4694 12.423C18.5542 12.4659 18.5542 12.5515 18.5965 12.5515C18.6389 12.5944 18.6389 12.5944 18.7236 12.5515C18.8083 12.5087 18.8083 12.5087 18.8507 12.5087C18.9354 12.5087 19.0201 12.5087 19.0625 12.5515C19.1049 12.5944 19.1049 12.6372 19.0625 12.6801C19.0201 12.7229 19.0201 12.7229 18.9354 12.7657C18.8507 12.8086 18.8507 12.8514 18.766 12.8942C18.6812 12.9799 18.6389 13.0228 18.5118 13.0656H18.4694C18.5965 13.1084 18.6812 13.1941 18.7236 13.3226C18.7236 13.2798 18.766 13.2369 18.766 13.2369C18.766 13.2369 18.766 13.1941 18.8083 13.1941C18.8507 13.1513 18.8507 13.1513 18.893 13.1084L18.9354 13.0656C18.9354 13.0656 18.9778 13.0656 18.9778 13.0228C19.0201 12.9799 19.0625 12.9371 19.0625 12.8942C19.1049 12.8514 19.1049 12.8514 19.1472 12.8086C19.1896 12.8086 19.1896 12.7657 19.2319 12.7657C19.2743 12.7657 19.3167 12.8514 19.3167 12.8942C19.3167 12.9799 19.2743 13.1084 19.2743 13.1513L19.3167 13.1941C19.359 13.2369 19.4014 13.2798 19.4014 13.4083V13.4511C19.4014 13.5368 19.359 13.6225 19.3167 13.6653C19.2743 13.7082 19.2319 13.7082 19.2319 13.751C19.2319 13.8367 19.1896 13.9224 19.1896 13.9652C19.1896 14.008 19.1472 14.0509 19.1049 14.0937H19.0625C19.0201 14.0937 19.0201 14.0937 19.0201 14.0937C19.0201 14.0937 18.9778 14.0937 18.9778 14.0509C18.9778 14.0509 18.9354 14.008 18.9354 13.9652C18.9354 13.9224 18.893 13.9224 18.893 13.8795C18.893 13.8367 18.8507 13.8367 18.8507 13.7938C18.8083 13.751 18.766 13.7082 18.766 13.6653C18.7236 13.5797 18.6812 13.5368 18.6812 13.4511C18.6389 13.5368 18.5542 13.6225 18.4271 13.6653C18.4694 13.7938 18.5965 14.1365 18.9778 14.1794C19.3167 14.2222 19.5708 14.0937 19.7403 13.9224C19.7826 13.8795 19.7826 13.8367 19.825 13.7938H19.7826C19.6132 13.7938 19.6132 13.751 19.5708 13.751Z" fill="white"/>
<path d="M14.3606 12.8943C14.3606 12.6801 14.53 12.4659 14.7842 12.4659C14.996 12.4659 15.2078 12.6801 15.2078 12.8943C15.2078 13.1085 15.0384 13.3226 14.7842 13.3226C14.53 13.3226 14.3606 13.1085 14.3606 12.8943Z" fill="white"/>
<path d="M14.53 10.581C14.53 10.3668 14.6995 10.1955 14.9536 10.1955C15.1654 10.1955 15.3349 10.3668 15.3349 10.581C15.3349 10.7952 15.1654 11.0094 14.9536 11.0094C14.6995 11.0094 14.53 10.7952 14.53 10.581Z" fill="white"/>
<path d="M15.2078 10.1526C15.2078 9.98127 15.3348 9.85275 15.5043 9.85275C15.6737 9.85275 15.8008 9.98127 15.8008 10.1526C15.8008 10.324 15.6737 10.4525 15.5043 10.4525C15.3348 10.4525 15.2078 10.324 15.2078 10.1526Z" fill="white"/>
<path d="M15.8008 9.98126C15.8008 9.80991 15.9279 9.6814 16.0973 9.6814C16.2668 9.6814 16.3938 9.80991 16.3938 9.98126C16.3938 10.1526 16.2668 10.2811 16.0973 10.2811C15.9279 10.2811 15.8008 10.1526 15.8008 9.98126Z" fill="white"/>
<path d="M16.3938 9.93843C16.3938 9.80991 16.5209 9.6814 16.648 9.6814C16.775 9.6814 16.9021 9.80991 16.9021 9.93843C16.9021 10.0669 16.775 10.1955 16.648 10.1955C16.5209 10.1955 16.3938 10.1098 16.3938 9.93843Z" fill="white"/>
<path d="M16.9021 9.98127C16.9021 9.85276 17.0292 9.72424 17.1563 9.72424C17.2834 9.72424 17.4104 9.85276 17.4104 9.98127C17.4104 10.1098 17.2834 10.2383 17.1563 10.2383C16.9868 10.2383 16.9021 10.1526 16.9021 9.98127Z" fill="white"/>
<path d="M17.3682 10.1098C17.3682 10.0241 17.4529 9.93845 17.5376 9.93845C17.6223 9.93845 17.7071 10.0241 17.7071 10.1098C17.7071 10.1955 17.6223 10.324 17.5376 10.324C17.4529 10.324 17.3682 10.2383 17.3682 10.1098Z" fill="white"/>
<path d="M17.707 10.2811C17.707 10.1954 17.7918 10.1098 17.8765 10.1098C17.9612 10.1098 18.0459 10.1954 18.0459 10.2811C18.0459 10.3668 17.9612 10.4525 17.8765 10.4525C17.7918 10.4525 17.707 10.3668 17.707 10.2811Z" fill="white"/>
<path d="M18.0037 10.4525C18.0037 10.324 18.1307 10.1955 18.2578 10.1955C18.3849 10.1955 18.512 10.324 18.512 10.4525C18.512 10.581 18.4273 10.7095 18.2578 10.7095C18.1307 10.6667 18.0037 10.581 18.0037 10.4525Z" fill="white"/>
<path d="M17.9612 10.9666C17.9612 10.7952 18.0883 10.6667 18.2577 10.6667C18.4272 10.6667 18.5542 10.7952 18.5542 10.9666C18.5542 11.1379 18.4272 11.2664 18.2577 11.2664C18.0883 11.2664 17.9612 11.1379 17.9612 10.9666Z" fill="white"/>
<path d="M17.9189 11.6091C17.9189 11.3949 18.0884 11.2664 18.2578 11.2664C18.4696 11.2664 18.5967 11.4378 18.5967 11.6091C18.5967 11.8233 18.4273 11.9518 18.2578 11.9518C18.046 11.9518 17.9189 11.8233 17.9189 11.6091Z" fill="white"/>
<path d="M17.7917 12.423C17.7917 12.166 18.0036 11.9518 18.2577 11.9518C18.5119 11.9518 18.7237 12.166 18.7237 12.423C18.7237 12.6801 18.5119 12.8943 18.2577 12.8943C18.0036 12.8514 17.7917 12.6801 17.7917 12.423Z" fill="white"/>
<path d="M12.2847 14.8648C12.2847 14.6506 12.4541 14.4793 12.6659 14.4793C12.8777 14.4793 13.0472 14.6506 13.0472 14.8648C13.0472 15.079 12.8777 15.2504 12.6659 15.2504C12.4541 15.2504 12.2847 15.079 12.2847 14.8648Z" fill="white"/>
<path d="M11.9036 14.1794C11.9036 13.9652 12.1154 13.751 12.3272 13.751C12.539 13.751 12.7508 13.9224 12.7508 14.1794C12.7508 14.3936 12.539 14.6078 12.3272 14.6078C12.073 14.6078 11.9036 14.4364 11.9036 14.1794Z" fill="white"/>
<path d="M11.7764 13.4512C11.7764 13.237 11.9458 13.0656 12.1576 13.0656C12.3694 13.0656 12.5389 13.237 12.5389 13.4512C12.5389 13.6653 12.3694 13.8367 12.1576 13.8367C11.9458 13.8367 11.7764 13.6225 11.7764 13.4512Z" fill="white"/>
<path d="M11.9036 12.68C11.9036 12.4659 12.073 12.3373 12.2425 12.3373C12.4543 12.3373 12.5813 12.5087 12.5813 12.68C12.5813 12.8942 12.4119 13.0227 12.2425 13.0227C12.073 13.0656 11.9036 12.8942 11.9036 12.68Z" fill="white"/>
<path d="M12.2424 12.1232C12.2424 11.9518 12.3695 11.7805 12.5813 11.7805C12.7508 11.7805 12.9202 11.909 12.9202 12.1232C12.9202 12.2945 12.7931 12.4659 12.5813 12.4659C12.3695 12.423 12.2424 12.2945 12.2424 12.1232Z" fill="white"/>
<path d="M12.666 11.6948C12.666 11.5234 12.7931 11.3949 12.9625 11.3949C13.132 11.3949 13.2591 11.5234 13.2591 11.6948C13.2591 11.8661 13.132 11.9947 12.9625 11.9947C12.7931 11.9518 12.666 11.8233 12.666 11.6948Z" fill="white"/>
<path d="M13.1743 11.4378C13.1743 11.3092 13.3014 11.1807 13.4285 11.1807C13.5556 11.1807 13.6827 11.3092 13.6827 11.4378C13.6827 11.5663 13.5556 11.6948 13.4285 11.6948C13.3014 11.6948 13.1743 11.5663 13.1743 11.4378Z" fill="white"/>
<path d="M13.6826 11.3521C13.6826 11.2236 13.7673 11.1379 13.8944 11.1379C14.0215 11.1379 14.1062 11.2236 14.1062 11.3521C14.1062 11.4806 14.0215 11.5663 13.8944 11.5663C13.7673 11.5663 13.6826 11.4806 13.6826 11.3521Z" fill="white"/>
<path d="M21.3076 12.8943C21.3076 12.6801 21.4771 12.4659 21.7312 12.4659C21.943 12.4659 22.1549 12.6801 22.1549 12.8943C22.1549 13.1085 21.9854 13.3226 21.7312 13.3226C21.5194 13.3226 21.3076 13.1085 21.3076 12.8943Z" fill="white"/>
<path d="M21.1382 10.581C21.1382 10.3668 21.3076 10.1955 21.5618 10.1955C21.7736 10.1955 21.943 10.3668 21.943 10.581C21.943 10.7952 21.7736 11.0094 21.5618 11.0094C21.35 11.0094 21.1382 10.7952 21.1382 10.581Z" fill="white"/>
<path d="M20.6724 10.1526C20.6724 9.98127 20.7994 9.85275 20.9689 9.85275C21.1383 9.85275 21.2654 9.98127 21.2654 10.1526C21.2654 10.324 21.1383 10.4525 20.9689 10.4525C20.8418 10.4525 20.6724 10.324 20.6724 10.1526Z" fill="white"/>
<path d="M20.1216 9.98126C20.1216 9.80991 20.2487 9.6814 20.4181 9.6814C20.5876 9.6814 20.7146 9.80991 20.7146 9.98126C20.7146 10.1526 20.5876 10.2811 20.4181 10.2811C20.2487 10.2811 20.1216 10.1526 20.1216 9.98126Z" fill="white"/>
<path d="M19.6133 9.93843C19.6133 9.80991 19.7404 9.6814 19.8675 9.6814C19.9945 9.6814 20.1216 9.80991 20.1216 9.93843C20.1216 10.0669 19.9945 10.1955 19.8675 10.1955C19.7404 10.1955 19.6133 10.1098 19.6133 9.93843Z" fill="white"/>
<path d="M19.1472 9.98127C19.1472 9.85276 19.2319 9.72424 19.4014 9.72424C19.5285 9.72424 19.6556 9.85276 19.6556 9.98127C19.6556 10.1098 19.5285 10.2383 19.4014 10.2383C19.2319 10.2383 19.1472 10.1526 19.1472 9.98127Z" fill="white"/>
<path d="M18.7661 10.1098C18.7661 10.0241 18.8508 9.93845 18.9779 9.93845C19.0626 9.93845 19.1474 10.0241 19.1474 10.1098C19.1474 10.1955 19.0626 10.324 18.9779 10.324C18.8508 10.324 18.7661 10.2383 18.7661 10.1098Z" fill="white"/>
<path d="M18.4695 10.2811C18.4695 10.1954 18.5542 10.1098 18.6389 10.1098C18.7237 10.1098 18.8084 10.1954 18.8084 10.2811C18.8084 10.3668 18.7237 10.4525 18.6389 10.4525C18.5542 10.4525 18.4695 10.3668 18.4695 10.2811Z" fill="white"/>
<path d="M23.7646 14.1794C23.7646 13.9652 23.9341 13.751 24.1883 13.751C24.4001 13.751 24.6119 13.9224 24.6119 14.1794C24.6119 14.3936 24.4424 14.6078 24.1883 14.6078C23.9341 14.6078 23.7646 14.4364 23.7646 14.1794Z" fill="white"/>
<path d="M23.9766 13.4512C23.9766 13.237 24.146 13.0656 24.3578 13.0656C24.5696 13.0656 24.7391 13.237 24.7391 13.4512C24.7391 13.6653 24.5696 13.8367 24.3578 13.8367C24.146 13.7939 23.9766 13.6225 23.9766 13.4512Z" fill="white"/>
<path d="M23.8918 12.68C23.8918 12.5087 24.0613 12.3373 24.2307 12.3373C24.4425 12.3373 24.5696 12.5087 24.5696 12.68C24.5696 12.8942 24.4002 13.0227 24.2307 13.0227C24.0613 13.0656 23.8918 12.8942 23.8918 12.68Z" fill="white"/>
<path d="M23.6377 12.1232C23.6377 11.9518 23.7648 11.8233 23.9342 11.8233C24.1037 11.8233 24.2308 11.9518 24.2308 12.1232C24.2308 12.2945 24.1037 12.423 23.9342 12.423C23.8071 12.423 23.6377 12.2945 23.6377 12.1232Z" fill="white"/>
<path d="M23.2563 11.6948C23.2563 11.5234 23.3834 11.3949 23.5529 11.3949C23.7223 11.3949 23.8494 11.5234 23.8494 11.6948C23.8494 11.8661 23.7223 11.9947 23.5529 11.9947C23.3834 11.9518 23.2563 11.8233 23.2563 11.6948Z" fill="white"/>
<path d="M22.8328 11.4378C22.8328 11.3092 22.9175 11.1807 23.0869 11.1807C23.214 11.1807 23.3411 11.3092 23.3411 11.4378C23.3411 11.5663 23.214 11.6948 23.0869 11.6948C22.9175 11.6948 22.8328 11.5663 22.8328 11.4378Z" fill="white"/>
<path d="M22.3667 11.3521C22.3667 11.2236 22.4514 11.1379 22.5785 11.1379C22.7056 11.1379 22.7903 11.2236 22.7903 11.3521C22.7903 11.4806 22.7056 11.5663 22.5785 11.5663C22.4938 11.5663 22.3667 11.4806 22.3667 11.3521Z" fill="white"/>
<path d="M14.1064 11.2664C14.1064 11.0522 14.3183 10.838 14.5301 10.838C14.7419 10.838 14.9537 11.0094 14.9537 11.2664C14.9537 11.4806 14.7842 11.6948 14.5301 11.6948C14.3183 11.652 14.1064 11.4806 14.1064 11.2664Z" fill="white"/>
<path d="M14.1064 11.2664C14.1064 11.0522 14.3183 10.838 14.5301 10.838C14.7419 10.838 14.9537 11.0094 14.9537 11.2664C14.9537 11.4806 14.7842 11.6948 14.5301 11.6948C14.3183 11.652 14.1064 11.4806 14.1064 11.2664Z" fill="white"/>
<path d="M13.9368 12.1232C13.9368 11.8661 14.1486 11.6519 14.4027 11.6519C14.6569 11.6519 14.8687 11.8661 14.8687 12.1232C14.8687 12.3802 14.6569 12.5944 14.4027 12.5944C14.1486 12.5944 13.9368 12.3802 13.9368 12.1232Z" fill="white"/>
<path d="M21.562 11.2664C21.562 11.0522 21.7315 10.838 21.9433 10.838C22.1551 10.838 22.3669 11.0094 22.3669 11.2664C22.3669 11.4806 22.1974 11.652 21.9433 11.652C21.6891 11.652 21.562 11.4806 21.562 11.2664Z" fill="white"/>
<path d="M21.6042 12.1232C21.6042 11.8661 21.8161 11.6519 22.0702 11.6519C22.3244 11.6519 22.5362 11.8661 22.5362 12.1232C22.5362 12.3802 22.3244 12.5944 22.0702 12.5944C21.8161 12.5944 21.6042 12.3802 21.6042 12.1232Z" fill="white"/>
<path d="M18.2153 16.0643L17.241 15.4645L18.2153 14.8648L19.1896 15.4645C18.8507 15.6359 18.5542 15.8501 18.2153 16.0643Z" fill="white"/>
<path d="M18.2154 14.9933C18.4695 15.1218 18.6814 15.2932 18.9355 15.4217L18.2154 15.8501L17.5376 15.4217L18.2154 14.9933Z" fill="white"/>
<path d="M21.4348 15.7644L19.9522 15.2503L19.698 16.0214L21.223 16.5355L21.4348 15.7644Z" fill="white"/>
<path d="M21.3077 15.8501L19.9945 15.4217L19.8674 15.8929L21.1383 16.3641L21.3077 15.8501Z" fill="white"/>
<path d="M22.8752 16.2356V16.7068L22.4516 16.921L22.0703 16.2785L22.8752 16.2356Z" fill="white"/>
<path d="M22.9598 16.2785H22.1126L22.5362 16.921C22.5785 17.0067 22.4938 17.0495 22.4514 17.0495L22.0278 16.1928C22.0278 16.1928 22.1126 16.1928 23.0021 16.1071C23.0021 16.1071 23.0021 16.2785 22.9598 16.2785Z" fill="white"/>
<path d="M14.9958 15.7644L16.5209 15.2503L16.7327 16.0214L15.25 16.5355L14.9958 15.7644Z" fill="white"/>
<path d="M15.1653 15.8501L16.4361 15.4217L16.6056 15.8929L15.2924 16.3641L15.1653 15.8501Z" fill="white"/>
<path d="M13.6404 16.2356L13.6827 16.7068L14.1064 16.921L14.4452 16.2785L13.6404 16.2356Z" fill="white"/>
<path d="M13.598 16.2785H14.4452L14.0216 16.921C13.9793 17.0067 14.064 17.0495 14.1064 17.0495L14.53 16.1928C14.53 16.1928 14.4452 16.1928 13.5557 16.1071C13.5133 16.1071 13.5133 16.2785 13.598 16.2785Z" fill="white"/>
<path d="M23.4683 14.8648C23.4683 14.6506 23.6377 14.4793 23.8495 14.4793C24.0613 14.4793 24.2308 14.6506 24.2308 14.8648C24.2308 15.079 24.0613 15.2504 23.8495 15.2504C23.6377 15.2504 23.4683 15.079 23.4683 14.8648Z" fill="white"/>
<path d="M12.666 19.7912C13.0472 24.6319 14.9111 28.5301 18.7236 31.5716C18.3847 31.9144 18.0882 32.2142 17.9188 32.3427C13.8521 29.0014 11.5646 23.9465 11.5222 18.6774H24.4001V19.7912H12.666Z" fill="white"/>
<path d="M24.4425 21.1191H14.3181C14.9959 25.5315 16.4362 28.0161 19.7827 30.5007C19.9945 30.2436 20.2911 29.9866 20.5029 29.7724C17.4529 27.5877 16.1397 25.1459 15.6737 22.2329H24.4425V21.1191Z" fill="white"/>
</g>
<defs>
<clipPath id="clip0">
<path d="M0 0H155V64H0V0Z" fill="white"/>
</clipPath>
</defs>
</svg>
