<svg width="18" height="18" viewBox="0 0 18 18" fill="none" xmlns="http://www.w3.org/2000/svg">
<path d="M16.8444 7.4332H16.2V7.4H9V10.6H13.5212C12.8616 12.4628 11.0892 13.8 9 13.8C6.3492 13.8 4.2 11.6508 4.2 9C4.2 6.3492 6.3492 4.2 9 4.2C10.2236 4.2 11.3368 4.6616 12.1844 5.4156L14.4472 3.1528C13.0184 1.8212 11.1072 1 9 1C4.582 1 1 4.582 1 9C1 13.418 4.582 17 9 17C13.418 17 17 13.418 17 9C17 8.4636 16.9448 7.94 16.8444 7.4332Z" fill="#FFC107"/>
<path d="M1.92236 5.2764L4.55076 7.204C5.26196 5.4432 6.98436 4.2 8.99996 4.2C10.2236 4.2 11.3368 4.6616 12.1844 5.4156L14.4472 3.1528C13.0184 1.8212 11.1072 1 8.99996 1C5.92716 1 3.26236 2.7348 1.92236 5.2764Z" fill="#FF3D00"/>
<path d="M8.99993 17C11.0663 17 12.9439 16.2092 14.3635 14.9232L11.8875 12.828C11.0573 13.4593 10.0429 13.8008 8.99993 13.8C6.91913 13.8 5.15233 12.4732 4.48673 10.6216L1.87793 12.6316C3.20193 15.2224 5.89073 17 8.99993 17Z" fill="#4CAF50"/>
<path d="M16.8444 7.43316H16.2V7.39996H9V10.6H13.5212C13.2057 11.4865 12.6373 12.2612 11.8864 12.8284L11.8876 12.8276L14.3636 14.9228C14.1884 15.082 17 13 17 8.99996C17 8.46356 16.9448 7.93996 16.8444 7.43316Z" fill="#1976D2"/>
</svg>
